<?xml version="1.0" standalone="no"?>
<!DOCTYPE svg PUBLIC "-//W3C//DTD SVG 20010904//EN"
 "http://www.w3.org/TR/2001/REC-SVG-20010904/DTD/svg10.dtd">
<svg version="1.0" xmlns="http://www.w3.org/2000/svg"
 width="50.000000pt" height="50.000000pt" viewBox="0 0 50.000000 50.000000"
 preserveAspectRatio="xMidYMid meet">

<g transform="translate(0.000000,50.000000) scale(0.100000,-0.100000)"
fill="#000000" stroke="none">
<path d="M60 480 c-11 -11 -20 -29 -20 -40 0 -26 34 -60 60 -60 26 0 60 34 60
60 0 26 -34 60 -60 60 -11 0 -29 -9 -40 -20z"/>
<path d="M330 480 c-11 -11 -20 -29 -20 -40 0 -11 9 -29 20 -40 11 -11 29 -20
40 -20 26 0 60 34 60 60 0 11 -9 29 -20 40 -11 11 -29 20 -40 20 -11 0 -29 -9
-40 -20z"/>
<path d="M16 351 c-23 -25 -20 -196 4 -196 11 0 16 17 20 70 4 56 6 41 10 -75
5 -137 6 -145 25 -145 18 0 21 8 25 85 l6 85 4 -85 c5 -77 7 -85 25 -85 19 0
20 8 25 145 4 116 6 131 10 75 4 -53 9 -70 20 -70 12 0 16 18 18 89 4 117 -4
126 -103 126 -58 0 -75 -4 -89 -19z"/>
<path d="M288 353 c-23 -26 -61 -154 -49 -166 15 -15 28 0 46 54 9 28 19 48
21 46 2 -2 -5 -30 -16 -62 -25 -74 -26 -95 0 -95 16 0 19 -8 22 -63 3 -54 5
-62 23 -62 17 0 21 9 26 65 l5 65 5 -65 c3 -57 7 -65 24 -65 18 0 20 8 23 62
3 55 6 63 22 63 26 0 25 21 0 95 -11 32 -18 60 -16 62 2 2 12 -18 21 -46 18
-54 31 -69 46 -54 12 12 -26 140 -49 166 -11 13 -31 17 -77 17 -46 0 -66 -4
-77 -17z"/>
</g>
</svg>
