<?xml version="1.0" standalone="no"?>
<!DOCTYPE svg PUBLIC "-//W3C//DTD SVG 20010904//EN"
 "http://www.w3.org/TR/2001/REC-SVG-20010904/DTD/svg10.dtd">
<svg version="1.0" xmlns="http://www.w3.org/2000/svg"
 width="50.000000pt" height="50.000000pt" viewBox="0 0 50.000000 50.000000"
 preserveAspectRatio="xMidYMid meet">

<g transform="translate(0.000000,50.000000) scale(0.100000,-0.100000)"
fill="#000000" stroke="none">
<path d="M103 481 c-4 -14 -15 -21 -42 -23 -35 -3 -36 -4 -39 -45 l-3 -43 231
0 231 0 -3 43 c-3 41 -4 42 -39 45 -27 2 -38 9 -42 23 -7 26 -47 25 -54 -1 -5
-18 -14 -20 -93 -20 -79 0 -88 2 -93 20 -7 26 -47 27 -54 1z m37 -31 c0 -16
-4 -30 -10 -30 -5 0 -10 14 -10 30 0 17 5 30 10 30 6 0 10 -13 10 -30z m240 0
c0 -16 -4 -30 -10 -30 -5 0 -10 14 -10 30 0 17 5 30 10 30 6 0 10 -13 10 -30z"/>
<path d="M22 188 l3 -163 225 0 225 0 3 163 2 162 -230 0 -230 0 2 -162z m263
72 l29 -30 -64 0 -64 0 29 30 c16 17 32 30 35 30 3 0 19 -13 35 -30z m-8 -117
l-27 -28 -27 28 -28 27 55 0 55 0 -28 -27z"/>
</g>
</svg>
