<?xml version="1.0" standalone="no"?>
<!DOCTYPE svg PUBLIC "-//W3C//DTD SVG 20010904//EN"
 "http://www.w3.org/TR/2001/REC-SVG-20010904/DTD/svg10.dtd">
<svg version="1.0" xmlns="http://www.w3.org/2000/svg"
 width="50.000000pt" height="50.000000pt" viewBox="0 0 50.000000 50.000000"
 preserveAspectRatio="xMidYMid meet">

<g transform="translate(0.000000,50.000000) scale(0.100000,-0.100000)"
fill="#000000" stroke="none">
<path d="M197 427 c-59 -81 -117 -202 -117 -244 0 -66 45 -132 107 -159 103
-44 220 29 231 144 3 41 -2 58 -40 132 -41 80 -115 190 -128 190 -3 0 -27 -29
-53 -63z m-44 -266 c7 -34 41 -69 74 -77 23 -6 32 -24 13 -24 -42 0 -110 66
-110 106 0 34 16 30 23 -5z"/>
</g>
</svg>
