<?xml version="1.0" standalone="no"?>
<!DOCTYPE svg PUBLIC "-//W3C//DTD SVG 20010904//EN"
 "http://www.w3.org/TR/2001/REC-SVG-20010904/DTD/svg10.dtd">
<svg version="1.0" xmlns="http://www.w3.org/2000/svg"
 width="50.000000pt" height="50.000000pt" viewBox="0 0 50.000000 50.000000"
 preserveAspectRatio="xMidYMid meet">

<g transform="translate(0.000000,50.000000) scale(0.100000,-0.100000)"
fill="#000000" stroke="none">
<path d="M64 436 c-19 -19 -34 -42 -34 -52 1 -103 251 -353 353 -354 23 0 87
62 87 84 0 9 -25 32 -55 53 -55 36 -56 36 -89 20 l-33 -15 -61 61 -60 62 16
32 c15 32 15 33 -21 88 -21 30 -44 55 -53 55 -9 0 -31 -15 -50 -34z"/>
</g>
</svg>
