<?xml version="1.0" encoding="UTF-8"?>
<!DOCTYPE svg PUBLIC "-//W3C//DTD SVG 1.1//EN" "http://www.w3.org/Graphics/SVG/1.1/DTD/svg11.dtd">
<svg xmlns="http://www.w3.org/2000/svg" version="1.1" width="225px" height="225px" style="shape-rendering:geometricPrecision; text-rendering:geometricPrecision; image-rendering:optimizeQuality; fill-rule:evenodd; clip-rule:evenodd" xmlns:xlink="http://www.w3.org/1999/xlink">
<g><path style="opacity:1" fill="#fdfdfd" d="M -0.5,-0.5 C 74.5,-0.5 149.5,-0.5 224.5,-0.5C 224.5,74.5 224.5,149.5 224.5,224.5C 149.5,224.5 74.5,224.5 -0.5,224.5C -0.5,149.5 -0.5,74.5 -0.5,-0.5 Z"/></g>
<g><path style="opacity:1" fill="#0a0504" d="M 102.5,10.5 C 133.256,8.11868 155.09,20.7853 168,48.5C 172.914,62.9552 172.581,77.2885 167,91.5C 157.968,112.572 146.635,132.239 133,150.5C 127.424,157.32 122.091,164.32 117,171.5C 113.667,176.833 110.333,176.833 107,171.5C 93.8877,154.386 81.5544,136.719 70,118.5C 62.4065,105.645 56.7398,91.9779 53,77.5C 50.729,47.5337 63.229,26.3671 90.5,14C 94.5431,12.5086 98.5431,11.3419 102.5,10.5 Z"/></g>
<g><path style="opacity:1" fill="#e12627" d="M 100.5,17.5 C 133.151,14.3942 154.317,28.3942 164,59.5C 164.667,65.8333 164.667,72.1667 164,78.5C 161.596,86.7104 158.596,94.7104 155,102.5C 142.626,125.197 128.292,146.53 112,166.5C 93.5785,144.003 77.9119,119.67 65,93.5C 52.2933,56.5844 64.1266,31.2511 100.5,17.5 Z"/></g>
<g><path style="opacity:1" fill="#ed7879" d="M 92.5,27.5 C 97.3276,27.3852 98.6609,29.5519 96.5,34C 90.7377,34.4178 89.4044,32.2511 92.5,27.5 Z"/></g>
<g><path style="opacity:1" fill="#ed7a7b" d="M 80.5,36.5 C 83.1268,36.2933 84.7935,37.46 85.5,40C 81.9635,44.8998 78.7968,50.0664 76,55.5C 74.202,60.6781 73.202,66.0115 73,71.5C 71,74.1667 69,74.1667 67,71.5C 65.9195,57.664 70.4195,45.9974 80.5,36.5 Z"/></g>
<g><path style="opacity:1" fill="#060303" d="M 105.5,45.5 C 123.678,43.8521 134.011,52.0187 136.5,70C 134.936,85.0641 126.603,93.2307 111.5,94.5C 96.9334,92.7667 88.9334,84.6001 87.5,70C 88.3887,57.9612 94.3887,49.7946 105.5,45.5 Z"/></g>
<g><path style="opacity:1" fill="#bfe3f0" d="M 106.5,52.5 C 124.416,51.6866 131.582,60.0199 128,77.5C 122.496,86.6688 114.662,89.5022 104.5,86C 93.8999,78.8952 91.7333,69.7286 98,58.5C 100.637,56.109 103.47,54.109 106.5,52.5 Z"/></g>
<g><path style="opacity:1" fill="#ab1d1e" d="M 138.5,104.5 C 142.146,105.462 143.313,107.795 142,111.5C 135.615,122.548 128.448,133.048 120.5,143C 115.355,143.398 114.188,141.231 117,136.5C 124.425,125.977 131.591,115.31 138.5,104.5 Z"/></g>
<g><path style="opacity:1" fill="#090909" d="M 74.5,153.5 C 77.1873,153.336 79.854,153.503 82.5,154C 83.8333,155.667 83.8333,157.333 82.5,159C 72.2024,160.544 62.5357,163.877 53.5,169C 51.9717,171.881 52.6384,174.214 55.5,176C 66.5623,181.235 78.2289,184.235 90.5,185C 111.299,186.347 131.966,185.347 152.5,182C 159.345,180.503 165.512,177.669 171,173.5C 171.667,172.167 171.667,170.833 171,169.5C 162.203,164.345 152.703,161.179 142.5,160C 139.41,156.508 140.077,154.342 144.5,153.5C 154.318,154.787 163.651,157.62 172.5,162C 181.462,171.479 179.796,178.812 167.5,184C 143.106,192.004 118.106,194.671 92.5,192C 78.5118,191.17 65.1785,187.836 52.5,182C 43.6803,175.751 43.347,169.084 51.5,162C 58.8801,158.044 66.5468,155.211 74.5,153.5 Z"/></g>
<g><path style="opacity:1" fill="#090909" d="M 33.5,157.5 C 37.2253,157.78 38.392,159.78 37,163.5C 30.2288,165.945 24.2288,169.611 19,174.5C 18.0296,176.274 17.1963,178.107 16.5,180C 17.1963,181.893 18.0296,183.726 19,185.5C 27.5245,192.845 37.3578,197.678 48.5,200C 56.7816,201.923 65.1149,203.59 73.5,205C 102.918,207.521 132.252,206.855 161.5,203C 176.253,200.751 189.919,195.751 202.5,188C 209.167,182.667 209.167,177.333 202.5,172C 197.567,168.732 192.4,165.899 187,163.5C 186.333,161.833 186.333,160.167 187,158.5C 196.494,159.57 204.494,163.904 211,171.5C 213.34,175.555 214.007,179.889 213,184.5C 209.052,191.781 203.218,196.947 195.5,200C 168.052,209.807 139.719,214.307 110.5,213.5C 84.8905,214.246 59.8905,210.746 35.5,203C 26.5876,200.298 19.0876,195.464 13,188.5C 9.66667,182.833 9.66667,177.167 13,171.5C 18.9797,165.439 25.813,160.772 33.5,157.5 Z"/></g>
</svg>
