<?xml version="1.0" encoding="UTF-8"?>
<!DOCTYPE svg PUBLIC "-//W3C//DTD SVG 1.1//EN" "http://www.w3.org/Graphics/SVG/1.1/DTD/svg11.dtd">
<svg xmlns="http://www.w3.org/2000/svg" version="1.1" width="512px" height="512px" style="shape-rendering:geometricPrecision; text-rendering:geometricPrecision; image-rendering:optimizeQuality; fill-rule:evenodd; clip-rule:evenodd" xmlns:xlink="http://www.w3.org/1999/xlink">
<g><path style="opacity:0.977" fill="#030201" d="M 189.5,-0.5 C 192.167,-0.5 194.833,-0.5 197.5,-0.5C 216.786,18.4515 236.119,37.4515 255.5,56.5C 274.881,37.4515 294.214,18.4515 313.5,-0.5C 316.167,-0.5 318.833,-0.5 321.5,-0.5C 383.525,33.5988 445.691,67.5988 508,101.5C 510,105.167 510,108.833 508,112.5C 489.319,131.014 470.819,149.681 452.5,168.5C 470.456,187.957 488.956,206.957 508,225.5C 511.226,232.267 509.392,237.101 502.5,240C 484.833,249.5 467.167,259 449.5,268.5C 448.991,315.246 448.157,361.913 447,408.5C 444.766,410.7 442.266,412.533 439.5,414C 379.279,446.274 319.279,478.774 259.5,511.5C 256.833,511.5 254.167,511.5 251.5,511.5C 191.721,478.774 131.721,446.274 71.5,414C 68.2167,412.439 65.3834,410.273 63,407.5C 62.8333,361.163 62.3333,314.83 61.5,268.5C 43.8333,259 26.1667,249.5 8.5,240C 1.60761,237.101 -0.225727,232.267 3,225.5C 22.0444,206.957 40.5444,187.957 58.5,168.5C 40.1806,149.681 21.6806,131.014 3,112.5C 1,108.833 1,105.167 3,101.5C 35.9262,82.9524 69.0929,64.7857 102.5,47C 106.983,44.5839 110.983,45.0839 114.5,48.5C 116.353,53.0646 115.353,56.898 111.5,60C 81.5,76.3333 51.5,92.6667 21.5,109C 38.1667,125.667 54.8333,142.333 71.5,159C 128.798,129.18 185.798,98.5129 242.5,67C 225.645,50.1449 208.812,33.3116 192,16.5C 173.61,25.9447 155.443,35.778 137.5,46C 133.077,47.1176 129.41,45.9509 126.5,42.5C 125.617,38.0464 126.95,34.5464 130.5,32C 150.229,21.1387 169.895,10.3053 189.5,-0.5 Z"/></g>
<g><path style="opacity:0.999" fill="#e1ad82" d="M 114.5,48.5 C 118.783,47.0249 122.783,45.0249 126.5,42.5C 129.41,45.9509 133.077,47.1176 137.5,46C 155.443,35.778 173.61,25.9447 192,16.5C 208.812,33.3116 225.645,50.1449 242.5,67C 185.798,98.5129 128.798,129.18 71.5,159C 54.8333,142.333 38.1667,125.667 21.5,109C 51.5,92.6667 81.5,76.3333 111.5,60C 115.353,56.898 116.353,53.0646 114.5,48.5 Z"/></g>
<g><path style="opacity:1" fill="#d29b71" d="M 318.5,16.5 C 375.592,47.0754 432.592,77.9088 489.5,109C 472.653,126.014 455.653,142.847 438.5,159.5C 381.673,128.921 325.007,98.0874 268.5,67C 285.368,50.2986 302.035,33.4652 318.5,16.5 Z"/></g>
<g><path style="opacity:1" fill="#c38c68" d="M 254.5,77.5 C 311.272,107.721 367.939,138.221 424.5,169C 368.167,199.5 311.833,230 255.5,260.5C 199.167,230 142.833,199.5 86.5,169C 142.722,138.726 198.722,108.226 254.5,77.5 Z"/></g>
<g><path style="opacity:1" fill="#fdd1a5" d="M 71.5,178.5 C 128.765,208.8 185.765,239.633 242.5,271C 225.833,287.667 209.167,304.333 192.5,321C 135.361,290.925 78.3609,260.259 21.5,229C 38.3684,212.299 55.0351,195.465 71.5,178.5 Z"/></g>
<g><path style="opacity:1" fill="#e0ad82" d="M 470.5,239.5 C 454.116,222.115 437.116,205.448 419.5,189.5C 423.268,186.775 427.268,184.275 431.5,182C 434.058,180.374 436.725,179.374 439.5,179C 456.167,195.667 472.833,212.333 489.5,229C 483.14,232.512 476.806,236.012 470.5,239.5 Z"/></g>
<g><path style="opacity:1" fill="#f1c296" d="M 419.5,189.5 C 437.116,205.448 454.116,222.115 470.5,239.5C 447.976,251.839 425.309,264.006 402.5,276C 397.884,278.093 395.551,281.593 395.5,286.5C 395.719,287.675 395.386,288.675 394.5,289.5C 390.931,291.453 387.264,293.119 383.5,294.5C 380.66,291.857 377.327,291.024 373.5,292C 355.254,301.706 337.087,311.54 319,321.5C 302.167,304.667 285.333,287.833 268.5,271C 318.568,243.3 368.902,216.133 419.5,189.5 Z"/></g>
<g><path style="opacity:1" fill="#cd986f" d="M 410.5,411.5 C 410.5,370.833 410.5,330.167 410.5,289.5C 417.729,284.718 425.396,280.718 433.5,277.5C 433.667,318.168 433.5,358.835 433,399.5C 425.609,403.73 418.109,407.73 410.5,411.5 Z"/></g>
<g><path style="opacity:1" fill="#f0c296" d="M 246.5,288.5 C 247.833,355.833 247.833,423.167 246.5,490.5C 190.44,460.052 134.273,429.719 78,399.5C 77.5,358.835 77.3333,318.168 77.5,277.5C 116.218,297.943 155.052,318.277 194,338.5C 196.032,338.142 197.866,337.308 199.5,336C 215.368,320.299 231.035,304.465 246.5,288.5 Z"/></g>
<g><path style="opacity:1" fill="#78604a" d="M 246.5,288.5 C 246.56,287.957 246.893,287.624 247.5,287.5C 248.833,355.5 248.833,423.5 247.5,491.5C 246.893,491.376 246.56,491.043 246.5,490.5C 247.833,423.167 247.833,355.833 246.5,288.5 Z"/></g>
<g><path style="opacity:1" fill="#705640" d="M 264.5,288.5 C 263.167,355.833 263.167,423.167 264.5,490.5C 264.44,491.043 264.107,491.376 263.5,491.5C 262.167,423.5 262.167,355.5 263.5,287.5C 264.107,287.624 264.44,287.957 264.5,288.5 Z"/></g>
<g><path style="opacity:1" fill="#e1ad82" d="M 395.5,286.5 C 399.381,292.016 404.381,293.016 410.5,289.5C 410.5,330.167 410.5,370.833 410.5,411.5C 361.833,437.833 313.167,464.167 264.5,490.5C 263.167,423.167 263.167,355.833 264.5,288.5C 279.965,304.465 295.632,320.299 311.5,336C 313.067,337.076 314.734,337.909 316.5,338.5C 321.059,337.221 325.392,335.388 329.5,333C 345.5,324.333 361.5,315.667 377.5,307C 382.927,304.559 384.927,300.392 383.5,294.5C 387.264,293.119 390.931,291.453 394.5,289.5C 395.386,288.675 395.719,287.675 395.5,286.5 Z"/></g>
</svg>
