<?xml version="1.0" encoding="UTF-8"?>
<!DOCTYPE svg PUBLIC "-//W3C//DTD SVG 1.1//EN" "http://www.w3.org/Graphics/SVG/1.1/DTD/svg11.dtd">
<svg xmlns="http://www.w3.org/2000/svg" version="1.1" width="512px" height="512px" style="shape-rendering:geometricPrecision; text-rendering:geometricPrecision; image-rendering:optimizeQuality; fill-rule:evenodd; clip-rule:evenodd" xmlns:xlink="http://www.w3.org/1999/xlink">
<g><path style="opacity:0.997" fill="#c40c0c" d="M 262.5,7.5 C 295.956,60.0543 326.122,114.721 353,171.5C 374.379,215.969 390.379,262.303 401,310.5C 414.205,372.215 397.372,424.048 350.5,466C 308.422,497.462 261.755,506.796 210.5,494C 191.919,488.793 175.086,480.293 160,468.5C 159.601,468.728 159.435,469.062 159.5,469.5C 156.606,468.118 154.106,466.118 152,463.5C 131.178,440.19 117.511,413.19 111,382.5C 108.168,348.818 111.835,315.818 122,283.5C 136.126,236.597 154.626,191.597 177.5,148.5C 164.876,175.531 153.709,203.198 144,231.5C 136.805,252.949 132.138,274.949 130,297.5C 128.383,348.772 149.216,387.939 192.5,415C 236.347,436.423 279.68,435.423 322.5,412C 369.437,378.224 387.603,332.724 377,275.5C 368.795,238.553 356.795,202.886 341,168.5C 317.314,117.443 290.314,68.443 260,21.5C 256.504,17.5654 253.004,17.5654 249.5,21.5C 251.272,16.7965 253.939,12.6299 257.5,9C 259.025,7.99136 260.692,7.49136 262.5,7.5 Z"/></g>
<g><path style="opacity:1" fill="#a31717" d="M 262.5,7.5 C 265.056,8.54341 267.223,10.2101 269,12.5C 314.431,82.6864 353.098,156.686 385,234.5C 396.718,264.654 405.385,295.654 411,327.5C 418.64,364.735 412.973,399.735 394,432.5C 359.027,488.9 308.194,513.733 241.5,507C 214.956,503.935 190.956,494.601 169.5,479C 165.666,476.332 162.333,473.165 159.5,469.5C 159.435,469.062 159.601,468.728 160,468.5C 175.086,480.293 191.919,488.793 210.5,494C 261.755,506.796 308.422,497.462 350.5,466C 397.372,424.048 414.205,372.215 401,310.5C 390.379,262.303 374.379,215.969 353,171.5C 326.122,114.721 295.956,60.0543 262.5,7.5 Z"/></g>
<g><path style="opacity:1" fill="#fe0d00" d="M 177.5,148.5 C 198.719,104.373 222.719,62.0395 249.5,21.5C 253.004,17.5654 256.504,17.5654 260,21.5C 290.314,68.443 317.314,117.443 341,168.5C 356.795,202.886 368.795,238.553 377,275.5C 387.603,332.724 369.437,378.224 322.5,412C 279.68,435.423 236.347,436.423 192.5,415C 149.216,387.939 128.383,348.772 130,297.5C 132.138,274.949 136.805,252.949 144,231.5C 153.709,203.198 164.876,175.531 177.5,148.5 Z"/></g>
<g><path style="opacity:1" fill="#ff7372" d="M 252.5,25.5 C 257.178,25.6818 259.678,28.0151 260,32.5C 222.302,91.5596 190.636,153.893 165,219.5C 155.354,245.084 148.687,271.417 145,298.5C 140.706,336.207 151.039,369.207 176,397.5C 176.667,398.167 176.667,398.833 176,399.5C 137.233,364.515 124.233,321.515 137,270.5C 146.641,230.242 160.641,191.576 179,154.5C 200.928,109.811 225.428,66.8112 252.5,25.5 Z"/></g>
</svg>
