<?xml version="1.0" encoding="UTF-8"?>
<!DOCTYPE svg PUBLIC "-//W3C//DTD SVG 1.1//EN" "http://www.w3.org/Graphics/SVG/1.1/DTD/svg11.dtd">
<svg xmlns="http://www.w3.org/2000/svg" version="1.1" width="512px" height="512px" style="shape-rendering:geometricPrecision; text-rendering:geometricPrecision; image-rendering:optimizeQuality; fill-rule:evenodd; clip-rule:evenodd" xmlns:xlink="http://www.w3.org/1999/xlink">
<g><path style="opacity:0.992" fill="#ffb14e" d="M 253.5,-0.5 C 254.833,-0.5 256.167,-0.5 257.5,-0.5C 293.5,20.8333 329.5,42.1667 365.5,63.5C 292.3,105.929 219.3,148.596 146.5,191.5C 109.364,170.431 72.3641,149.098 35.5,127.5C 108.167,84.8333 180.833,42.1667 253.5,-0.5 Z"/></g>
<g><path style="opacity:0.997" fill="#ffd76b" d="M 365.5,63.5 C 402.502,84.3318 439.169,105.665 475.5,127.5C 402.167,170.167 328.833,212.833 255.5,255.5C 218.967,234.404 182.633,213.071 146.5,191.5C 219.3,148.596 292.3,105.929 365.5,63.5 Z"/></g>
<g><path style="opacity:0.996" fill="#ff9356" d="M 35.5,127.5 C 72.3641,149.098 109.364,170.431 146.5,191.5C 182.633,213.071 218.967,234.404 255.5,255.5C 255.5,340.833 255.5,426.167 255.5,511.5C 254.833,511.5 254.167,511.5 253.5,511.5C 181.394,468.941 109.061,426.608 36.5,384.5C 35.5,298.836 35.1667,213.169 35.5,127.5 Z"/></g>
<g><path style="opacity:0.996" fill="#ffb14e" d="M 475.5,127.5 C 475.833,213.169 475.5,298.836 474.5,384.5C 401.939,426.608 329.606,468.941 257.5,511.5C 256.833,511.5 256.167,511.5 255.5,511.5C 255.5,426.167 255.5,340.833 255.5,255.5C 328.833,212.833 402.167,170.167 475.5,127.5 Z"/></g>
<g><path style="opacity:1" fill="#fffefc" d="M 382.5,244.5 C 394.855,243.024 400.355,248.357 399,260.5C 397.542,262.96 395.709,265.127 393.5,267C 379.003,275.081 364.669,283.414 350.5,292C 337.23,296.055 331.063,291.221 332,277.5C 333.458,275.04 335.291,272.873 337.5,271C 352.892,262.644 367.892,253.811 382.5,244.5 Z"/></g>
</svg>
