<?xml version="1.0" encoding="UTF-8"?>
<!DOCTYPE svg PUBLIC "-//W3C//DTD SVG 1.1//EN" "http://www.w3.org/Graphics/SVG/1.1/DTD/svg11.dtd">
<svg xmlns="http://www.w3.org/2000/svg" version="1.1" width="512px" height="512px" style="shape-rendering:geometricPrecision; text-rendering:geometricPrecision; image-rendering:optimizeQuality; fill-rule:evenodd; clip-rule:evenodd" xmlns:xlink="http://www.w3.org/1999/xlink">
<g><path style="opacity:0.997" fill="#f16969" d="M 327.5,194.5 C 301.218,229.24 298.551,265.74 319.5,304C 306.964,307.505 294.631,307.172 282.5,303C 298.368,320.097 318.034,328.763 341.5,329C 350.805,335.486 360.805,340.653 371.5,344.5C 361.602,411.034 326.269,458.367 265.5,486.5C 163.821,430.829 88.8211,350.496 40.5,245.5C 65.4827,190.52 94.316,137.853 127,87.5C 141.085,65.6618 155.418,43.9951 170,22.5C 182.612,9.43852 197.112,6.93852 213.5,15C 216.63,17.128 219.463,19.628 222,22.5C 259.952,78.0596 295.119,135.393 327.5,194.5 Z"/></g>
<g><path style="opacity:0.996" fill="#f6f3f8" d="M 371.5,344.5 C 360.805,340.653 350.805,335.486 341.5,329C 318.034,328.763 298.368,320.097 282.5,303C 294.631,307.172 306.964,307.505 319.5,304C 298.551,265.74 301.218,229.24 327.5,194.5C 356.403,163.811 391.069,154.978 431.5,168C 459.801,179.744 478.634,200.244 488,229.5C 497.315,267.883 487.481,300.383 458.5,327C 432.457,347.375 403.457,353.209 371.5,344.5 Z"/></g>
<g><path style="opacity:1" fill="#f16969" d="M 352.5,235.5 C 381.835,235.333 411.169,235.5 440.5,236C 455.262,241.703 459.429,251.87 453,266.5C 449.908,270.928 445.741,273.761 440.5,275C 411.167,275.667 381.833,275.667 352.5,275C 338.817,268.623 334.983,258.456 341,244.5C 344.161,240.491 347.994,237.491 352.5,235.5 Z"/></g>
<g><path style="opacity:1" fill="#de5555" d="M 40.5,245.5 C 88.8211,350.496 163.821,430.829 265.5,486.5C 231.069,501.067 195.403,504.567 158.5,497C 103.25,483.732 62.7505,451.898 37,401.5C 18.2036,361.948 15.2036,321.282 28,279.5C 31.8786,268.028 36.0453,256.694 40.5,245.5 Z"/></g>
<g><path style="opacity:1" fill="#f6f0f5" d="M 187.5,286.5 C 223.309,286.467 244.476,304.133 251,339.5C 253.256,366.14 243.756,387.306 222.5,403C 191.775,417.092 167.275,409.925 149,381.5C 136.782,357.223 137.782,333.556 152,310.5C 161.132,298.362 172.965,290.362 187.5,286.5 Z"/></g>
<g><path style="opacity:1" fill="#f16969" d="M 188.5,298.5 C 217.388,298.548 234.222,312.881 239,341.5C 240.75,362.28 233.584,379.114 217.5,392C 193.771,403.757 174.604,398.59 160,376.5C 146.824,350.405 150.658,327.238 171.5,307C 176.98,303.593 182.647,300.76 188.5,298.5 Z"/></g>
</svg>
