<?xml version="1.0" encoding="UTF-8"?>
<!DOCTYPE svg PUBLIC "-//W3C//DTD SVG 1.1//EN" "http://www.w3.org/Graphics/SVG/1.1/DTD/svg11.dtd">
<svg xmlns="http://www.w3.org/2000/svg" version="1.1" width="512px" height="512px" style="shape-rendering:geometricPrecision; text-rendering:geometricPrecision; image-rendering:optimizeQuality; fill-rule:evenodd; clip-rule:evenodd" xmlns:xlink="http://www.w3.org/1999/xlink">
<g><path style="opacity:0.997" fill="#f16969" d="M 327.5,194.5 C 301.218,229.24 298.551,265.74 319.5,304C 306.979,307.369 294.646,307.035 282.5,303C 298.368,320.097 318.034,328.763 341.5,329C 350.805,335.486 360.805,340.653 371.5,344.5C 361.602,411.034 326.269,458.367 265.5,486.5C 226.667,465.093 190.667,439.76 157.5,410.5C 158.458,409.038 159.624,407.705 161,406.5C 165.736,394.793 170.569,383.126 175.5,371.5C 189.818,370.501 204.151,370.167 218.5,370.5C 222.693,383.245 227.193,395.912 232,408.5C 239.423,412.081 242.756,409.748 242,401.5C 229,365.5 216,329.5 203,293.5C 200.077,285.584 195.744,284.584 190,290.5C 176.766,327.381 163.266,364.047 149.5,400.5C 103.883,356.364 68.2166,305.198 42.5,247C 42.1639,245.97 41.4972,245.47 40.5,245.5C 65.4827,190.52 94.316,137.853 127,87.5C 141.085,65.6618 155.418,43.9951 170,22.5C 182.612,9.43852 197.112,6.93852 213.5,15C 216.63,17.128 219.463,19.628 222,22.5C 259.952,78.0596 295.119,135.393 327.5,194.5 Z"/></g>
<g><path style="opacity:0.996" fill="#f6f3f8" d="M 371.5,344.5 C 360.805,340.653 350.805,335.486 341.5,329C 318.034,328.763 298.368,320.097 282.5,303C 294.646,307.035 306.979,307.369 319.5,304C 298.551,265.74 301.218,229.24 327.5,194.5C 356.403,163.811 391.069,154.978 431.5,168C 459.801,179.744 478.634,200.244 488,229.5C 497.315,267.883 487.481,300.383 458.5,327C 432.457,347.375 403.457,353.209 371.5,344.5 Z"/></g>
<g><path style="opacity:1" fill="#f16969" d="M 391.5,196.5 C 402.706,195.185 410.872,199.519 416,209.5C 416.5,218.16 416.666,226.827 416.5,235.5C 425.582,235.086 434.582,235.586 443.5,237C 455.204,242.924 458.704,252.091 454,264.5C 450.957,269.877 446.457,273.377 440.5,275C 432.507,275.5 424.507,275.666 416.5,275.5C 416.917,284.915 416.417,294.248 415,303.5C 408.659,313.586 399.825,316.753 388.5,313C 383.527,310.031 380.027,305.864 378,300.5C 377.5,292.173 377.334,283.84 377.5,275.5C 369.16,275.666 360.827,275.5 352.5,275C 338.817,268.623 334.983,258.456 341,244.5C 343.989,240.509 347.822,237.676 352.5,236C 360.827,235.5 369.16,235.334 377.5,235.5C 377.334,226.827 377.5,218.16 378,209.5C 381.101,203.563 385.601,199.23 391.5,196.5 Z"/></g>
<g><path style="opacity:1" fill="#de5555" d="M 40.5,245.5 C 41.4972,245.47 42.1639,245.97 42.5,247C 68.2166,305.198 103.883,356.364 149.5,400.5C 148.133,407.128 150.8,410.462 157.5,410.5C 190.667,439.76 226.667,465.093 265.5,486.5C 231.069,501.067 195.403,504.567 158.5,497C 103.25,483.732 62.7505,451.898 37,401.5C 18.2036,361.948 15.2036,321.282 28,279.5C 31.8786,268.028 36.0453,256.694 40.5,245.5 Z"/></g>
<g><path style="opacity:1" fill="#f6f0f5" d="M 157.5,410.5 C 150.8,410.462 148.133,407.128 149.5,400.5C 163.266,364.047 176.766,327.381 190,290.5C 195.744,284.584 200.077,285.584 203,293.5C 216,329.5 229,365.5 242,401.5C 242.756,409.748 239.423,412.081 232,408.5C 227.193,395.912 222.693,383.245 218.5,370.5C 204.151,370.167 189.818,370.501 175.5,371.5C 170.569,383.126 165.736,394.793 161,406.5C 159.624,407.705 158.458,409.038 157.5,410.5 Z"/></g>
<g><path style="opacity:1" fill="#f16b6b" d="M 212.5,356.5 C 201.5,357.833 190.5,357.833 179.5,356.5C 184.497,341.012 189.997,325.678 196,310.5C 202.003,325.678 207.503,341.012 212.5,356.5 Z"/></g>
<g><path style="opacity:1" fill="#f3aaac" d="M 179.5,356.5 C 190.5,357.833 201.5,357.833 212.5,356.5C 213.043,356.56 213.376,356.893 213.5,357.5C 201.833,358.833 190.167,358.833 178.5,357.5C 178.624,356.893 178.957,356.56 179.5,356.5 Z"/></g>
</svg>
