<?xml version="1.0" encoding="UTF-8"?>
<!DOCTYPE svg PUBLIC "-//W3C//DTD SVG 1.1//EN" "http://www.w3.org/Graphics/SVG/1.1/DTD/svg11.dtd">
<svg xmlns="http://www.w3.org/2000/svg" version="1.1" width="512px" height="512px" style="shape-rendering:geometricPrecision; text-rendering:geometricPrecision; image-rendering:optimizeQuality; fill-rule:evenodd; clip-rule:evenodd" xmlns:xlink="http://www.w3.org/1999/xlink">
<g><path style="opacity:0.997" fill="#f16969" d="M 327.5,194.5 C 301.218,229.24 298.551,265.74 319.5,304C 306.979,307.369 294.646,307.035 282.5,303C 298.368,320.097 318.034,328.763 341.5,329C 350.805,335.486 360.805,340.653 371.5,344.5C 361.602,411.034 326.269,458.367 265.5,486.5C 213.794,458.82 168.127,423.154 128.5,379.5C 129.418,376.497 130.751,373.663 132.5,371C 146.512,370.167 160.512,370.334 174.5,371.5C 179.098,383.461 183.598,395.461 188,407.5C 191.333,411.5 194.667,411.5 198,407.5C 198.483,401.932 197.483,396.599 195,391.5C 182.53,357.09 169.863,322.756 157,288.5C 152.155,285.202 148.488,286.202 146,291.5C 136.962,317.458 127.462,343.125 117.5,368.5C 103.135,349.621 89.3014,330.288 76,310.5C 63.14,290.282 51.9733,269.116 42.5,247C 42.1639,245.97 41.4972,245.47 40.5,245.5C 65.4827,190.52 94.316,137.853 127,87.5C 141.085,65.6618 155.418,43.9951 170,22.5C 182.612,9.43852 197.112,6.93852 213.5,15C 216.63,17.128 219.463,19.628 222,22.5C 259.952,78.0596 295.119,135.393 327.5,194.5 Z"/></g>
<g><path style="opacity:0.996" fill="#f6f3f8" d="M 371.5,344.5 C 360.805,340.653 350.805,335.486 341.5,329C 318.034,328.763 298.368,320.097 282.5,303C 294.646,307.035 306.979,307.369 319.5,304C 298.551,265.74 301.218,229.24 327.5,194.5C 356.403,163.811 391.069,154.978 431.5,168C 459.801,179.744 478.634,200.244 488,229.5C 497.315,267.883 487.481,300.383 458.5,327C 432.457,347.375 403.457,353.209 371.5,344.5 Z"/></g>
<g><path style="opacity:1" fill="#f16969" d="M 391.5,196.5 C 402.706,195.185 410.872,199.519 416,209.5C 416.5,218.16 416.666,226.827 416.5,235.5C 425.582,235.086 434.582,235.586 443.5,237C 455.204,242.924 458.704,252.091 454,264.5C 450.957,269.877 446.457,273.377 440.5,275C 432.507,275.5 424.507,275.666 416.5,275.5C 416.917,284.915 416.417,294.248 415,303.5C 408.659,313.586 399.825,316.753 388.5,313C 383.527,310.031 380.027,305.864 378,300.5C 377.5,292.173 377.334,283.84 377.5,275.5C 369.16,275.666 360.827,275.5 352.5,275C 338.817,268.623 334.983,258.456 341,244.5C 343.989,240.509 347.822,237.676 352.5,236C 360.827,235.5 369.16,235.334 377.5,235.5C 377.334,226.827 377.5,218.16 378,209.5C 381.101,203.563 385.601,199.23 391.5,196.5 Z"/></g>
<g><path style="opacity:1" fill="#de5555" d="M 40.5,245.5 C 41.4972,245.47 42.1639,245.97 42.5,247C 51.9733,269.116 63.14,290.282 76,310.5C 89.3014,330.288 103.135,349.621 117.5,368.5C 114.171,379.653 110.338,390.653 106,401.5C 105.402,409.531 108.736,411.865 116,408.5C 120.181,398.807 124.348,389.141 128.5,379.5C 168.127,423.154 213.794,458.82 265.5,486.5C 231.069,501.067 195.403,504.567 158.5,497C 103.25,483.732 62.7505,451.898 37,401.5C 18.2036,361.948 15.2036,321.282 28,279.5C 31.8786,268.028 36.0453,256.694 40.5,245.5 Z"/></g>
<g><path style="opacity:1" fill="#f6f0f5" d="M 128.5,379.5 C 124.348,389.141 120.181,398.807 116,408.5C 108.736,411.865 105.402,409.531 106,401.5C 110.338,390.653 114.171,379.653 117.5,368.5C 127.462,343.125 136.962,317.458 146,291.5C 148.488,286.202 152.155,285.202 157,288.5C 169.863,322.756 182.53,357.09 195,391.5C 197.483,396.599 198.483,401.932 198,407.5C 194.667,411.5 191.333,411.5 188,407.5C 183.598,395.461 179.098,383.461 174.5,371.5C 160.512,370.334 146.512,370.167 132.5,371C 130.751,373.663 129.418,376.497 128.5,379.5 Z"/></g>
<g><path style="opacity:1" fill="#f6f1f6" d="M 215.5,286.5 C 229.504,286.333 243.504,286.5 257.5,287C 279.891,295.959 286.058,311.459 276,333.5C 273.5,336 271,338.5 268.5,341C 287.165,355.682 290.665,373.516 279,394.5C 272.361,403.404 263.527,408.57 252.5,410C 240.167,410.667 227.833,410.667 215.5,410C 211.763,408.719 209.263,406.219 208,402.5C 207.333,366.167 207.333,329.833 208,293.5C 209.742,290.254 212.242,287.921 215.5,286.5 Z"/></g>
<g><path style="opacity:1" fill="#f16969" d="M 219.5,298.5 C 232.241,298.059 244.908,298.559 257.5,300C 268.761,306.001 271.594,314.834 266,326.5C 263.795,329.04 261.295,331.207 258.5,333C 245.574,334.443 232.574,334.943 219.5,334.5C 219.5,322.5 219.5,310.5 219.5,298.5 Z"/></g>
<g><path style="opacity:1" fill="#f16b6b" d="M 168.5,355.5 C 163.376,356.829 157.876,357.495 152,357.5C 146.323,357.499 140.823,357.166 135.5,356.5C 140.894,341.152 146.394,325.819 152,310.5C 158.186,325.221 163.686,340.221 168.5,355.5 Z"/></g>
<g><path style="opacity:1" fill="#f16969" d="M 219.5,346.5 C 230.505,346.333 241.505,346.5 252.5,347C 271.306,353.113 277.473,365.613 271,384.5C 266.68,392.154 260.18,396.654 251.5,398C 240.839,398.5 230.172,398.667 219.5,398.5C 219.5,381.167 219.5,363.833 219.5,346.5 Z"/></g>
<g><path style="opacity:1" fill="#f4aaac" d="M 168.5,355.5 C 169.404,356.209 169.737,357.209 169.5,358.5C 157.814,358.832 146.148,358.499 134.5,357.5C 134.624,356.893 134.957,356.56 135.5,356.5C 140.823,357.166 146.323,357.499 152,357.5C 157.876,357.495 163.376,356.829 168.5,355.5 Z"/></g>
</svg>
