<?xml version="1.0" encoding="UTF-8"?>
<!DOCTYPE svg PUBLIC "-//W3C//DTD SVG 1.1//EN" "http://www.w3.org/Graphics/SVG/1.1/DTD/svg11.dtd">
<svg xmlns="http://www.w3.org/2000/svg" version="1.1" width="512px" height="512px" style="shape-rendering:geometricPrecision; text-rendering:geometricPrecision; image-rendering:optimizeQuality; fill-rule:evenodd; clip-rule:evenodd" xmlns:xlink="http://www.w3.org/1999/xlink">
<g><path style="opacity:0.997" fill="#f16969" d="M 327.5,194.5 C 301.218,229.24 298.551,265.74 319.5,304C 306.979,307.369 294.646,307.035 282.5,303C 298.368,320.097 318.034,328.763 341.5,329C 350.805,335.486 360.805,340.653 371.5,344.5C 361.602,411.034 326.269,458.367 265.5,486.5C 163.821,430.829 88.8211,350.496 40.5,245.5C 65.4827,190.52 94.316,137.853 127,87.5C 141.085,65.6618 155.418,43.9951 170,22.5C 182.612,9.43852 197.112,6.93852 213.5,15C 216.63,17.128 219.463,19.628 222,22.5C 259.952,78.0596 295.119,135.393 327.5,194.5 Z"/></g>
<g><path style="opacity:0.996" fill="#f6f3f8" d="M 371.5,344.5 C 360.805,340.653 350.805,335.486 341.5,329C 318.034,328.763 298.368,320.097 282.5,303C 294.646,307.035 306.979,307.369 319.5,304C 298.551,265.74 301.218,229.24 327.5,194.5C 356.403,163.811 391.069,154.978 431.5,168C 459.801,179.744 478.634,200.244 488,229.5C 497.315,267.883 487.481,300.383 458.5,327C 432.457,347.375 403.457,353.209 371.5,344.5 Z"/></g>
<g><path style="opacity:1" fill="#f16969" d="M 391.5,196.5 C 402.706,195.185 410.872,199.519 416,209.5C 416.5,218.16 416.666,226.827 416.5,235.5C 425.582,235.086 434.582,235.586 443.5,237C 455.204,242.924 458.704,252.091 454,264.5C 450.957,269.877 446.457,273.377 440.5,275C 432.507,275.5 424.507,275.666 416.5,275.5C 416.917,284.915 416.417,294.248 415,303.5C 408.659,313.586 399.825,316.753 388.5,313C 383.527,310.031 380.027,305.864 378,300.5C 377.5,292.173 377.334,283.84 377.5,275.5C 369.16,275.666 360.827,275.5 352.5,275C 338.817,268.623 334.983,258.456 341,244.5C 343.989,240.509 347.822,237.676 352.5,236C 360.827,235.5 369.16,235.334 377.5,235.5C 377.334,226.827 377.5,218.16 378,209.5C 381.101,203.563 385.601,199.23 391.5,196.5 Z"/></g>
<g><path style="opacity:1" fill="#de5555" d="M 40.5,245.5 C 88.8211,350.496 163.821,430.829 265.5,486.5C 231.069,501.067 195.403,504.567 158.5,497C 103.25,483.732 62.7505,451.898 37,401.5C 18.2036,361.948 15.2036,321.282 28,279.5C 31.8786,268.028 36.0453,256.694 40.5,245.5 Z"/></g>
<g><path style="opacity:1" fill="#f6f1f6" d="M 164.5,286.5 C 178.504,286.333 192.504,286.5 206.5,287C 224.952,293.402 232.452,306.235 229,325.5C 226.83,331.492 223.33,336.492 218.5,340.5C 235.363,354.45 239.196,371.45 230,391.5C 223.84,401.971 214.673,408.138 202.5,410C 189.833,410.667 177.167,410.667 164.5,410C 162.04,408.542 159.873,406.709 158,404.5C 156.353,367.893 156.019,331.227 157,294.5C 158.69,290.979 161.19,288.312 164.5,286.5 Z"/></g>
<g><path style="opacity:1" fill="#f16969" d="M 168.5,298.5 C 180.171,298.333 191.838,298.5 203.5,299C 216.718,303.554 220.885,312.388 216,325.5C 214.093,329.039 211.26,331.539 207.5,333C 194.561,334.422 181.561,334.922 168.5,334.5C 168.5,322.5 168.5,310.5 168.5,298.5 Z"/></g>
<g><path style="opacity:1" fill="#f16969" d="M 168.5,346.5 C 180.895,346.082 193.228,346.582 205.5,348C 222.57,356.325 227.07,369.158 219,386.5C 214.561,392.976 208.395,396.81 200.5,398C 189.839,398.5 179.172,398.667 168.5,398.5C 168.5,381.167 168.5,363.833 168.5,346.5 Z"/></g>
</svg>
